<svg width="1655" height="310" viewBox="0 0 1655 310" fill="none" xmlns="http://www.w3.org/2000/svg">
<path d="M11.1939 298.181L0.142104 298.984L5.8579 309.017L12.1839 299.919L11.1939 298.181ZM1655 0L1643.77 2.66951L1651.69 11.0639L1655 0ZM237 183.672L236.606 182.753L237 183.672ZM621 66.0001L621.069 65.0025L621 66.0001ZM1049 242L1048.76 242.971L1049 242ZM1396.5 192.177L1395.99 191.318L1396.5 192.177ZM11.2139 300.489C12.7573 299.617 14.5158 298.626 16.4739 297.525L15.4939 295.781C13.5345 296.883 11.7749 297.875 10.2303 298.747L11.2139 300.489ZM21.7162 294.584C23.3607 293.663 25.1027 292.69 26.9367 291.667L25.9626 289.92C24.1276 290.944 22.3846 291.918 20.7392 292.839L21.7162 294.584ZM32.1569 288.761C33.8315 287.831 35.5671 286.868 37.3603 285.875L36.3916 284.126C34.5974 285.119 32.8609 286.082 31.1855 287.013L32.1569 288.761ZM42.5807 282.99C44.2866 282.049 46.0365 281.085 47.8279 280.1L46.8643 278.348C45.0721 279.333 43.3213 280.297 41.6146 281.239L42.5807 282.99ZM53.1065 277.203C54.8159 276.267 56.5581 275.314 58.3313 274.346L57.3729 272.59C55.5989 273.559 53.8558 274.512 52.1455 275.449L53.1065 277.203ZM63.575 271.488C65.3115 270.543 67.0742 269.586 68.8614 268.617L67.9083 266.859C66.1202 267.828 64.3566 268.786 62.6192 269.731L63.575 271.488ZM74.1032 265.781C75.8378 264.844 77.5931 263.898 79.3675 262.943L78.4198 261.181C76.6444 262.137 74.8883 263.084 73.1528 264.021L74.1032 265.781ZM84.6628 260.099C86.3964 259.169 88.1465 258.233 89.9118 257.29L88.9697 255.526C87.2034 256.469 85.4524 257.406 83.7178 258.336L84.6628 260.099ZM95.2074 254.468C96.9527 253.539 98.7113 252.606 100.482 251.668L99.5458 249.9C97.774 250.839 96.0144 251.773 94.2681 252.702L95.2074 254.468ZM105.772 248.871C107.529 247.944 109.296 247.014 111.073 246.081L110.143 244.31C108.365 245.244 106.597 246.175 104.839 247.102L105.772 248.871ZM116.363 243.308C118.128 242.385 119.901 241.46 121.681 240.533L120.758 238.759C118.976 239.686 117.202 240.612 115.436 241.536L116.363 243.308ZM126.977 237.783C128.746 236.867 130.521 235.95 132.301 235.032L131.385 233.254C129.603 234.172 127.827 235.09 126.057 236.007L126.977 237.783ZM137.614 232.3C139.387 231.391 141.164 230.482 142.944 229.574L142.036 227.793C140.254 228.701 138.476 229.611 136.702 230.521L137.614 232.3ZM148.274 226.863C150.052 225.962 151.832 225.061 153.614 224.163L152.714 222.377C150.93 223.276 149.149 224.177 147.37 225.08L148.274 226.863ZM158.958 221.477C160.742 220.583 162.527 219.692 164.311 218.804L163.42 217.013C161.634 217.902 159.848 218.794 158.062 219.689L158.958 221.477ZM169.667 216.147C171.458 215.261 173.249 214.379 175.037 213.501L174.156 211.706C172.366 212.585 170.574 213.467 168.78 214.354L169.667 216.147ZM180.402 210.879C182.203 210.002 184 209.13 185.794 208.263L184.924 206.462C183.129 207.33 181.329 208.203 179.526 209.08L180.402 210.879ZM191.173 205.676C192.982 204.81 194.786 203.951 196.584 203.098L195.727 201.291C193.926 202.145 192.121 203.006 190.31 203.873L191.173 205.676ZM201.986 200.548C203.801 199.696 205.608 198.852 207.408 198.017L206.565 196.203C204.763 197.039 202.953 197.885 201.136 198.738L201.986 200.548ZM212.841 195.508C214.66 194.673 216.469 193.848 218.267 193.033L217.441 191.212C215.64 192.028 213.828 192.854 212.007 193.69L212.841 195.508ZM223.739 190.571C225.566 189.754 227.381 188.95 229.182 188.157L228.377 186.327C226.572 187.121 224.754 187.927 222.923 188.745L223.739 190.571ZM234.68 185.759C235.589 185.367 236.493 184.977 237.394 184.592L236.606 182.753C235.704 183.14 234.797 183.53 233.886 183.924L234.68 185.759ZM237.394 184.592C238.322 184.194 239.247 183.797 240.17 183.399L239.378 181.562C238.457 181.959 237.533 182.356 236.606 182.753L237.394 184.592ZM245.678 181.01C247.506 180.211 249.326 179.413 251.135 178.613L250.327 176.784C248.52 177.582 246.704 178.379 244.878 179.176L245.678 181.01ZM256.641 176.169C258.466 175.353 260.282 174.538 262.089 173.722L261.267 171.9C259.462 172.714 257.648 173.528 255.825 174.342L256.641 176.169ZM267.557 171.242C269.382 170.411 271.197 169.579 273.003 168.748L272.167 166.931C270.363 167.761 268.55 168.592 266.728 169.422L267.557 171.242ZM278.433 166.239C280.256 165.393 282.07 164.547 283.876 163.703L283.029 161.891C281.225 162.735 279.412 163.579 277.591 164.425L278.433 166.239ZM289.274 161.168C291.096 160.31 292.909 159.452 294.714 158.596L293.857 156.789C292.053 157.645 290.242 158.501 288.422 159.359L289.274 161.168ZM300.105 156.032C301.919 155.167 303.726 154.303 305.524 153.441L304.66 151.637C302.862 152.499 301.057 153.362 299.244 154.227L300.105 156.032ZM310.915 150.852C312.722 149.983 314.522 149.115 316.314 148.25L315.445 146.449C313.653 147.314 311.854 148.181 310.047 149.05L310.915 150.852ZM321.706 145.645C323.508 144.773 325.304 143.904 327.093 143.038L326.221 141.238C324.432 142.104 322.637 142.973 320.835 143.845L321.706 145.645ZM332.487 140.426C334.286 139.554 336.08 138.686 337.867 137.821L336.996 136.021C335.208 136.886 333.415 137.754 331.615 138.626L332.487 140.426ZM343.267 135.212C345.066 134.343 346.859 133.479 348.647 132.618L347.78 130.816C345.991 131.677 344.197 132.542 342.397 133.411L343.267 135.212ZM354.055 130.022C355.856 129.159 357.651 128.301 359.442 127.448L358.582 125.643C356.79 126.496 354.993 127.355 353.191 128.218L354.055 130.022ZM364.862 124.876C366.666 124.023 368.466 123.175 370.262 122.333L369.413 120.522C367.614 121.365 365.813 122.214 364.007 123.068L364.862 124.876ZM375.698 119.796C377.507 118.956 379.313 118.121 381.116 117.294L380.282 115.476C378.476 116.305 376.667 117.14 374.856 117.982L375.698 119.796ZM386.572 114.805C388.388 113.981 390.203 113.165 392.015 112.355L391.2 110.529C389.384 111.34 387.566 112.158 385.747 112.983L386.572 114.805ZM397.495 109.927C399.321 109.125 401.145 108.33 402.968 107.543L402.176 105.707C400.348 106.496 398.52 107.292 396.69 108.096L397.495 109.927ZM408.476 105.188C410.312 104.411 412.148 103.643 413.985 102.882L413.219 101.034C411.378 101.797 409.538 102.568 407.697 103.347L408.476 105.188ZM419.525 100.615C421.373 99.8673 423.222 99.1289 425.072 98.3996L424.339 96.5389C422.483 97.2704 420.628 98.011 418.775 98.7605L419.525 100.615ZM430.648 96.232C432.509 95.5188 434.372 94.8152 436.237 94.1215L435.54 92.2469C433.668 92.943 431.799 93.649 429.932 94.3645L430.648 96.232ZM441.852 92.0668C443.726 91.3921 445.604 90.7276 447.485 90.0738L446.828 88.1846C444.94 88.8409 443.055 89.5078 441.174 90.185L441.852 92.0668ZM453.14 88.1444C455.029 87.5123 456.921 86.8912 458.819 86.2813L458.207 84.3772C456.302 84.9896 454.401 85.6132 452.506 86.2478L453.14 88.1444ZM464.516 84.4888C466.419 83.9033 468.326 83.3293 470.24 82.7672L469.676 80.8482C467.754 81.4128 465.838 81.9893 463.928 82.5773L464.516 84.4888ZM475.979 81.1221C477.895 80.5866 479.818 80.0632 481.747 79.5522L481.235 77.6188C479.297 78.1322 477.365 78.658 475.441 79.1959L475.979 81.1221ZM487.526 78.0639C489.456 77.5813 491.392 77.1113 493.336 76.6542L492.879 74.7072C490.925 75.1666 488.979 75.6388 487.041 76.1236L487.526 78.0639ZM499.154 75.3302C501.095 74.903 503.045 74.4887 505.003 74.0876L504.602 72.1283C502.634 72.5313 500.675 72.9476 498.724 73.3769L499.154 75.3302ZM510.854 72.9339C512.807 72.5637 514.769 72.2067 516.74 71.8632L516.397 69.8928C514.416 70.2381 512.444 70.5968 510.481 70.9689L510.854 72.9339ZM522.619 70.8837C524.583 70.5715 526.556 70.2727 528.54 69.9876L528.255 68.008C526.262 68.2945 524.278 68.5947 522.305 68.9085L522.619 70.8837ZM534.439 69.1844C536.413 68.9305 538.397 68.6903 540.392 68.4639L540.167 66.4767C538.162 66.7042 536.168 66.9456 534.184 67.2007L534.439 69.1844ZM546.305 67.8369C548.287 67.6414 550.279 67.4596 552.283 67.2917L552.116 65.2987C550.102 65.4674 548.1 65.6501 546.109 65.8465L546.305 67.8369ZM558.207 66.8384C560.19 66.7009 562.185 66.5771 564.191 66.4671L564.082 64.4701C562.066 64.5806 560.062 64.7051 558.068 64.8432L558.207 66.8384ZM570.135 66.1831C572.118 66.1024 574.111 66.0351 576.117 65.9815L576.063 63.9822C574.048 64.0361 572.045 64.1037 570.054 64.1848L570.135 66.1831ZM582.084 65.8628C584.061 65.8369 586.05 65.8242 588.052 65.825L588.052 63.825C586.042 63.8242 584.044 63.837 582.058 63.8629L582.084 65.8628ZM594.047 65.867C596.016 65.8937 597.997 65.9334 599.991 65.9861L600.044 63.9868C598.042 63.9339 596.052 63.894 594.074 63.8671L594.047 65.867ZM606.006 66.1837C607.97 66.2606 609.945 66.3502 611.931 66.4524L612.034 64.455C610.039 64.3524 608.056 64.2625 606.085 64.1852L606.006 66.1837ZM617.913 66.7967C618.916 66.8604 619.922 66.9274 620.931 66.9976L621.069 65.0025C620.057 64.932 619.047 64.8647 618.04 64.8007L617.913 66.7967ZM620.931 66.9976C621.939 67.0678 622.944 67.1415 623.946 67.2186L624.1 65.2245C623.093 65.147 622.083 65.073 621.069 65.0025L620.931 66.9976ZM629.92 67.7221C631.898 67.9035 633.863 68.0983 635.816 68.3063L636.028 66.3175C634.065 66.1085 632.09 65.9127 630.102 65.7304L629.92 67.7221ZM641.771 68.9857C643.759 69.2277 645.734 69.4834 647.696 69.7525L647.967 67.771C645.995 67.5006 644.011 67.2436 642.013 67.0004L641.771 68.9857ZM653.555 70.6014C655.547 70.9054 657.526 71.2233 659.492 71.5547L659.824 69.5826C657.848 69.2494 655.859 68.9299 653.857 68.6243L653.555 70.6014ZM665.352 72.5894C667.316 72.9518 669.267 73.3277 671.206 73.7169L671.6 71.756C669.651 71.3648 667.689 70.9869 665.715 70.6226L665.352 72.5894ZM677.064 74.9402C679.004 75.3613 680.932 75.7957 682.849 76.2429L683.303 74.2952C681.377 73.8457 679.439 73.409 677.488 72.9857L677.064 74.9402ZM688.68 77.6518C690.614 78.1354 692.537 78.6321 694.449 79.1415L694.964 77.209C693.042 76.6969 691.109 76.1977 689.165 75.7115L688.68 77.6518ZM700.197 80.7211C702.122 81.266 704.035 81.8238 705.937 82.394L706.512 80.4782C704.599 79.9051 702.676 79.3445 700.741 78.7967L700.197 80.7211ZM711.612 84.1416C713.523 84.7459 715.424 85.3628 717.314 85.9916L717.945 84.0939C716.046 83.4619 714.136 82.842 712.215 82.2346L711.612 84.1416ZM722.952 87.9138C724.836 88.5717 726.711 89.2414 728.575 89.9225L729.262 88.0439C727.388 87.3596 725.505 86.6867 723.611 86.0256L722.952 87.9138ZM734.169 92.0108C736.029 92.72 737.88 93.4403 739.721 94.1714L740.459 92.3125C738.609 91.5781 736.751 90.8545 734.882 90.142L734.169 92.0108ZM745.265 96.4152C747.104 97.1738 748.934 97.9428 750.756 98.7218L751.543 96.8829C749.713 96.1005 747.875 95.3282 746.028 94.5663L745.265 96.4152ZM756.241 101.107C758.062 101.913 759.876 102.729 761.682 103.553L762.513 101.734C760.7 100.906 758.879 100.087 757.05 99.2782L756.241 101.107ZM767.1 106.065C768.904 106.913 770.701 107.771 772.491 108.637L773.362 106.836C771.566 105.967 769.762 105.107 767.952 104.255L767.1 106.065ZM777.85 111.263C779.636 112.149 781.416 113.044 783.191 113.946L784.097 112.164C782.317 111.258 780.531 110.361 778.74 109.471L777.85 111.263ZM788.498 116.676C790.267 117.596 792.031 118.523 793.79 119.456L794.728 117.69C792.964 116.753 791.195 115.824 789.421 114.901L788.498 116.676ZM799.055 122.277C800.808 123.225 802.556 124.179 804.301 125.139L805.265 123.386C803.516 122.424 801.764 121.468 800.007 120.518L799.055 122.277ZM809.528 128.036C811.267 129.007 813.004 129.984 814.737 130.966L815.723 129.225C813.986 128.242 812.246 127.263 810.504 126.29L809.528 128.036ZM819.931 133.924C821.66 134.915 823.387 135.91 825.112 136.909L826.114 135.178C824.386 134.178 822.657 133.181 820.925 132.189L819.931 133.924ZM830.278 139.913C831.999 140.919 833.72 141.927 835.439 142.939L836.453 141.215C834.732 140.203 833.01 139.193 831.287 138.186L830.278 139.913ZM840.587 145.976C842.302 146.991 844.017 148.008 845.733 149.027L846.755 147.307C845.038 146.288 843.322 145.27 841.605 144.255L840.587 145.976ZM850.873 152.084C852.585 153.103 854.297 154.124 856.012 155.146L857.036 153.428C855.321 152.406 853.608 151.385 851.896 150.366L850.873 152.084ZM861.154 158.21C862.864 159.229 864.576 160.249 866.291 161.268L867.313 159.549C865.599 158.53 863.887 157.511 862.177 156.492L861.154 158.21ZM871.444 164.327C873.155 165.342 874.87 166.355 876.588 167.369L877.604 165.646C875.887 164.634 874.174 163.62 872.463 162.607L871.444 164.327ZM881.752 170.404C883.47 171.411 885.192 172.417 886.919 173.421L887.924 171.692C886.2 170.689 884.48 169.684 882.763 168.679L881.752 170.404ZM892.099 176.419C893.827 177.415 895.56 178.408 897.299 179.399L898.289 177.662C896.554 176.673 894.823 175.681 893.098 174.686L892.099 176.419ZM902.501 182.348C904.24 183.328 905.986 184.305 907.737 185.279L908.709 183.531C906.961 182.559 905.219 181.584 903.482 180.605L902.501 182.348ZM912.969 188.166C914.718 189.124 916.474 190.079 918.236 191.029L919.185 189.269C917.427 188.321 915.675 187.368 913.93 186.412L912.969 188.166ZM923.517 193.852C925.276 194.784 927.043 195.712 928.817 196.634L929.74 194.86C927.97 193.94 926.208 193.014 924.454 192.085L923.517 193.852ZM934.156 199.383C935.926 200.285 937.704 201.182 939.49 202.074L940.383 200.284C938.602 199.395 936.829 198.501 935.064 197.601L934.156 199.383ZM944.875 204.73C946.662 205.602 948.458 206.468 950.263 207.328L951.123 205.522C949.324 204.665 947.533 203.802 945.751 202.933L944.875 204.73ZM955.685 209.877C957.496 210.718 959.315 211.552 961.145 212.379L961.969 210.557C960.146 209.732 958.332 208.901 956.527 208.063L955.685 209.877ZM966.602 214.812C968.43 215.615 970.269 216.412 972.118 217.201L972.903 215.362C971.061 214.575 969.229 213.782 967.406 212.981L966.602 214.812ZM977.63 219.518C979.469 220.279 981.319 221.033 983.179 221.779L983.923 219.922C982.07 219.179 980.227 218.428 978.394 217.67L977.63 219.518ZM988.774 223.984C990.622 224.7 992.481 225.408 994.351 226.108L995.052 224.235C993.189 223.538 991.338 222.832 989.497 222.119L988.774 223.984ZM999.995 228.182C1001.86 228.856 1003.74 229.522 1005.64 230.179L1006.29 228.29C1004.41 227.636 1002.54 226.972 1000.67 226.301L999.995 228.182ZM1011.3 232.109C1013.2 232.743 1015.11 233.368 1017.04 233.984L1017.65 232.08C1015.73 231.466 1013.83 230.843 1011.94 230.212L1011.3 232.109ZM1022.72 235.766C1024.62 236.35 1026.54 236.925 1028.47 237.491L1029.03 235.572C1027.11 235.008 1025.2 234.436 1023.31 233.854L1022.72 235.766ZM1034.25 239.149C1036.15 239.682 1038.07 240.206 1040 240.721L1040.51 238.788C1038.59 238.276 1036.68 237.754 1034.79 237.223L1034.25 239.149ZM1045.82 242.236C1046.8 242.483 1047.78 242.728 1048.76 242.971L1049.24 241.029C1048.26 240.788 1047.29 240.543 1046.31 240.297L1045.82 242.236ZM1048.76 242.971C1049.77 243.22 1050.77 243.467 1051.77 243.712L1052.25 241.77C1051.25 241.525 1050.25 241.278 1049.24 241.029L1048.76 242.971ZM1057.72 245.16C1059.68 245.635 1061.63 246.103 1063.57 246.562L1064.03 244.617C1062.1 244.157 1060.15 243.691 1058.19 243.216L1057.72 245.16ZM1069.57 247.979C1071.56 248.443 1073.53 248.898 1075.48 249.345L1075.92 247.396C1073.98 246.949 1072.01 246.495 1070.03 246.031L1069.57 247.979ZM1081.43 250.695C1083.44 251.144 1085.42 251.583 1087.39 252.014L1087.82 250.06C1085.85 249.63 1083.87 249.191 1081.87 248.743L1081.43 250.695ZM1093.32 253.292C1095.34 253.721 1097.34 254.14 1099.32 254.549L1099.72 252.59C1097.75 252.182 1095.75 251.764 1093.73 251.336L1093.32 253.292ZM1105.24 255.748C1107.27 256.153 1109.28 256.546 1111.28 256.928L1111.65 254.964C1109.66 254.583 1107.66 254.191 1105.63 253.787L1105.24 255.748ZM1117.21 258.039C1119.25 258.413 1121.27 258.774 1123.27 259.123L1123.61 257.152C1121.62 256.805 1119.6 256.445 1117.57 256.072L1117.21 258.039ZM1129.23 260.131C1131.27 260.467 1133.3 260.79 1135.3 261.098L1135.61 259.122C1133.61 258.814 1131.59 258.493 1129.55 258.158L1129.23 260.131ZM1141.28 261.984C1143.33 262.276 1145.36 262.553 1147.38 262.815L1147.64 260.832C1145.63 260.571 1143.61 260.295 1141.56 260.004L1141.28 261.984ZM1153.4 263.559C1155.45 263.798 1157.48 264.021 1159.49 264.228L1159.7 262.238C1157.69 262.033 1155.67 261.81 1153.63 261.572L1153.4 263.559ZM1165.56 264.803C1167.6 264.982 1169.63 265.142 1171.64 265.285L1171.79 263.29C1169.78 263.148 1167.77 262.988 1165.73 262.811L1165.56 264.803ZM1177.74 265.665C1179.79 265.774 1181.81 265.864 1183.82 265.934L1183.89 263.935C1181.89 263.866 1179.88 263.776 1177.85 263.668L1177.74 265.665ZM1189.95 266.089C1192 266.121 1194.03 266.131 1196.05 266.121L1196.03 264.121C1194.03 264.131 1192.01 264.121 1189.98 264.089L1189.95 266.089ZM1202.16 266.023C1204.21 265.968 1206.24 265.89 1208.27 265.79L1208.17 263.793C1206.16 263.892 1204.14 263.969 1202.1 264.024L1202.16 266.023ZM1214.35 265.418C1216.4 265.27 1218.43 265.097 1220.45 264.901L1220.26 262.91C1218.25 263.105 1216.24 263.276 1214.21 263.424L1214.35 265.418ZM1226.53 264.237C1228.55 263.99 1230.57 263.719 1232.58 263.423L1232.29 261.445C1230.3 261.738 1228.29 262.007 1226.29 262.251L1226.53 264.237ZM1238.62 262.46C1240.63 262.114 1242.63 261.743 1244.63 261.347L1244.24 259.385C1242.26 259.778 1240.27 260.146 1238.28 260.489L1238.62 262.46ZM1250.61 260.086C1252.59 259.644 1254.57 259.177 1256.55 258.684L1256.07 256.743C1254.11 257.232 1252.14 257.696 1250.18 258.134L1250.61 260.086ZM1262.47 257.14C1264.43 256.606 1266.39 256.046 1268.35 255.463L1267.78 253.546C1265.83 254.125 1263.89 254.68 1261.94 255.211L1262.47 257.14ZM1274.17 253.661C1276.11 253.041 1278.04 252.397 1279.99 251.729L1279.34 249.837C1277.41 250.501 1275.48 251.141 1273.56 251.756L1274.17 253.661ZM1285.73 249.694C1287.63 249.001 1289.53 248.286 1291.45 247.547L1290.73 245.681C1288.82 246.415 1286.93 247.127 1285.04 247.816L1285.73 249.694ZM1297.13 245.296C1299 244.541 1300.87 243.764 1302.75 242.966L1301.97 241.124C1300.1 241.919 1298.24 242.691 1296.38 243.443L1297.13 245.296ZM1308.39 240.526C1310.22 239.718 1312.06 238.89 1313.92 238.041L1313.08 236.222C1311.24 237.067 1309.4 237.892 1307.58 238.697L1308.39 240.526ZM1319.47 235.457C1321.28 234.599 1323.11 233.722 1324.95 232.827L1324.07 231.029C1322.24 231.921 1320.42 232.794 1318.62 233.649L1319.47 235.457ZM1330.43 230.121C1332.23 229.222 1334.04 228.306 1335.86 227.372L1334.95 225.592C1333.13 226.523 1331.33 227.437 1329.54 228.333L1330.43 230.121ZM1341.28 224.564C1343.06 223.632 1344.86 222.683 1346.66 221.718L1345.72 219.954C1343.92 220.917 1342.13 221.863 1340.35 222.792L1341.28 224.564ZM1352.04 218.823C1353.8 217.865 1355.58 216.891 1357.37 215.902L1356.41 214.151C1354.62 215.138 1352.84 216.11 1351.08 217.066L1352.04 218.823ZM1362.72 212.93C1364.47 211.951 1366.23 210.959 1368 209.952L1367.02 208.212C1365.24 209.217 1363.49 210.208 1361.74 211.185L1362.72 212.93ZM1373.34 206.908C1375.07 205.916 1376.81 204.91 1378.57 203.891L1377.57 202.161C1375.81 203.178 1374.07 204.183 1372.34 205.173L1373.34 206.908ZM1383.89 200.795C1385.61 199.788 1387.34 198.769 1389.09 197.737L1388.07 196.014C1386.33 197.045 1384.59 198.063 1382.88 199.068L1383.89 200.795ZM1394.35 194.622C1395.23 194.096 1396.12 193.568 1397.01 193.036L1395.99 191.318C1395.1 191.85 1394.21 192.377 1393.33 192.902L1394.35 194.622ZM1397.01 193.036C1397.87 192.522 1398.73 192.008 1399.59 191.493L1398.56 189.778C1397.71 190.292 1396.85 190.805 1395.99 191.318L1397.01 193.036ZM1404.73 188.404C1406.43 187.373 1408.13 186.341 1409.82 185.309L1408.78 183.601C1407.09 184.632 1405.39 185.663 1403.69 186.692L1404.73 188.404ZM1414.93 182.178C1416.63 181.129 1418.33 180.08 1420.02 179.03L1418.96 177.331C1417.28 178.379 1415.58 179.427 1413.88 180.474L1414.93 182.178ZM1425.07 175.88C1426.77 174.814 1428.47 173.748 1430.15 172.681L1429.09 170.99C1427.4 172.055 1425.71 173.12 1424.01 174.185L1425.07 175.88ZM1435.2 169.48C1436.88 168.408 1438.56 167.336 1440.22 166.265L1439.14 164.582C1437.48 165.652 1435.8 166.723 1434.12 167.793L1435.2 169.48ZM1445.27 163.01C1446.94 161.926 1448.61 160.842 1450.26 159.758L1449.17 158.084C1447.51 159.166 1445.85 160.249 1444.18 161.332L1445.27 163.01ZM1455.27 156.475C1456.94 155.373 1458.61 154.271 1460.27 153.171L1459.16 151.505C1457.5 152.604 1455.84 153.704 1454.17 154.805L1455.27 156.475ZM1465.21 149.873C1466.88 148.754 1468.55 147.635 1470.2 146.519L1469.08 144.861C1467.43 145.976 1465.77 147.093 1464.1 148.211L1465.21 149.873ZM1475.15 143.17C1476.8 142.046 1478.44 140.923 1480.08 139.802L1478.95 138.153C1477.31 139.272 1475.67 140.393 1474.02 141.517L1475.15 143.17ZM1485.02 136.403C1486.66 135.271 1488.29 134.142 1489.9 133.016L1488.76 131.374C1487.15 132.499 1485.52 133.627 1483.88 134.757L1485.02 136.403ZM1494.83 129.571C1496.47 128.423 1498.1 127.277 1499.71 126.135L1498.56 124.502C1496.94 125.643 1495.32 126.787 1493.69 127.934L1494.83 129.571ZM1504.59 122.677C1506.22 121.511 1507.85 120.349 1509.46 119.19L1508.3 117.565C1506.69 118.723 1505.06 119.883 1503.43 121.048L1504.59 122.677ZM1514.28 115.719C1515.92 114.536 1517.55 113.357 1519.16 112.182L1517.98 110.566C1516.37 111.739 1514.75 112.917 1513.11 114.098L1514.28 115.719ZM1523.96 108.671C1525.59 107.479 1527.2 106.292 1528.8 105.11L1527.61 103.502C1526.01 104.683 1524.4 105.868 1522.78 107.058L1523.96 108.671ZM1533.59 101.553C1535.2 100.354 1536.8 99.1608 1538.38 97.9734L1537.18 96.3736C1535.6 97.5596 1534 98.7514 1532.4 99.9487L1533.59 101.553ZM1543.16 94.3708C1544.76 93.164 1546.34 91.9637 1547.91 90.7702L1546.7 89.1789C1545.13 90.3709 1543.55 91.5698 1541.96 92.7752L1543.16 94.3708ZM1552.68 87.1239C1554.27 85.9078 1555.84 84.6992 1557.39 83.4986L1556.17 81.9158C1554.62 83.115 1553.05 84.3222 1551.47 85.5369L1552.68 87.1239ZM1562.15 79.8114C1563.73 78.5839 1565.29 77.3654 1566.83 76.1563L1565.59 74.5823C1564.05 75.79 1562.5 77.007 1560.92 78.233L1562.15 79.8114ZM1571.56 72.4325C1573.13 71.1913 1574.69 69.9607 1576.22 68.7413L1574.97 67.1763C1573.44 68.3942 1571.89 69.6232 1570.32 70.8629L1571.56 72.4325ZM1580.92 64.9875C1582.49 63.7296 1584.03 62.4844 1585.56 61.2526L1584.3 59.6967C1582.78 60.927 1581.23 62.1706 1579.67 63.427L1580.92 64.9875ZM1590.21 57.479C1591.79 56.2007 1593.33 54.9381 1594.85 53.6919L1593.58 52.1454C1592.06 53.3901 1590.52 54.6511 1588.95 55.9278L1590.21 57.479ZM1599.44 49.9138C1601.02 48.6114 1602.56 47.3286 1604.08 46.0662L1602.8 44.5295C1601.28 45.7903 1599.74 47.0714 1598.17 48.3721L1599.44 49.9138ZM1608.64 42.2515C1610.2 40.9409 1611.73 39.6548 1613.22 38.3941L1611.92 36.8676C1610.44 38.1266 1608.91 39.411 1607.35 40.7198L1608.64 42.2515ZM1617.8 34.5004C1619.35 33.1745 1620.86 31.8805 1622.32 30.6197L1621.02 29.1042C1619.55 30.3631 1618.05 31.6552 1616.5 32.9793L1617.8 34.5004ZM1626.81 26.7423C1628.38 25.3781 1629.89 24.0595 1631.33 22.7885L1630.02 21.2849C1628.57 22.5539 1627.06 23.8704 1625.49 25.2325L1626.81 26.7423ZM1635.84 18.821C1637.42 17.4224 1638.9 16.0954 1640.3 14.8433L1638.97 13.3533C1637.57 14.603 1636.09 15.9277 1634.51 17.3239L1635.84 18.821ZM1644.72 10.8637C1646.4 9.34719 1647.88 7.98696 1649.18 6.79245L1647.83 5.31987C1646.53 6.51125 1645.05 7.86832 1643.38 9.3816L1644.72 10.8637Z" fill="#AEAEAE"/>
</svg>
